<?xml version="1.0" encoding="UTF-8"?>
<svg viewBox="0 0 78 68" version="1.1" xmlns="http://www.w3.org/2000/svg" xmlns:xlink="http://www.w3.org/1999/xlink">
    <!-- Generator: Sketch 55.2 (78181) - https://sketchapp.com -->
    <title>blueprint</title>
    <desc>Created with Sketch.</desc>
    <g id="Page-1" stroke="none" stroke-width="1" fill="none" fill-rule="evenodd">
        <g id="Artboard" transform="translate(-306.000000, -104.000000)" fill-rule="nonzero">
            <g id="blueprint" transform="translate(306.000000, 104.000000)">
                <path d="M75.4508591,19 L0,19 L0,58.0960838 C0,63.5655184 4.33136746,68 9.67434692,68 L75.4508591,68 C76.3062058,68 77,67.2897854 77,66.4135934 L77,20.5858052 C77,19.7096133 76.3062058,19 75.4508591,19 Z" id="Path" fill="#64BDFF"></path>
                <path d="M78,20.5864066 L78,66.4141948 C78,67.2897854 77.2369158,68 76.2961448,68 L72,68 C72.940771,68 73.7038554,67.2897854 73.7038554,66.4141948 L73.7038554,20.5864066 C73.7038554,19.709012 72.940771,19 72,19 L76.2961448,19 C77.2369158,19 78,19.709012 78,20.5864066 Z" id="Path" fill="#43A3F9"></path>
                <g id="Group">
                    <path d="M13.6541958,46.3521589 C13.6541958,47.2072718 12.9588161,47.8998134 12.1001986,47.8998134 L9.70408476,47.8998134 C4.34494541,47.8998134 0,52.2270243 0,57.5648765 L0,9.74018627 C0,4.40233409 4.34494541,0.0751231527 9.70467403,0.0751231527 L12.1001986,0.0751231527 C12.9582267,0.0751231527 13.6541958,0.768251579 13.6541958,1.62277744 L13.6541958,46.3521589 Z" id="Path" fill="#167FFB"></path>
                    <path d="M69.994107,40.0435749 C69.994107,35.1212476 65.9732793,31.1174184 61.0313678,31.1174184 C56.2697838,31.1174184 52.3650492,34.8342537 52.0857186,39.5077355 L46.720097,39.5077355 C46.076576,39.5077355 45.5550411,40.0271417 45.5550411,40.6686231 L45.5550411,53.9290333 C45.5550411,54.5699276 46.076576,55.0899206 46.720097,55.0899206 L60.0348531,55.0899206 C60.6789635,55.0899206 61.2004984,54.5699276 61.2004984,53.9290333 L61.2004984,48.9656231 C66.0646214,48.8752405 69.994107,44.9089729 69.994107,40.0435749 Z M61.0313678,33.4386065 C64.688005,33.4386065 67.6628165,36.4018627 67.6628165,40.0435749 C67.6628165,43.6289447 64.7793473,46.5540524 61.2004984,46.6438482 L61.2004984,40.6686231 C61.2004984,40.0271417 60.6789635,39.5077355 60.0348531,39.5077355 L54.4229021,39.5077355 C54.6981074,36.1160425 57.5556473,33.4386065 61.0313678,33.4386065 L61.0313678,33.4386065 Z M58.869208,46.2864262 C56.8278556,45.5827336 55.236143,43.9135911 54.6474273,41.8295105 L58.869208,41.8295105 L58.869208,46.2864262 Z M47.8857421,52.7681459 L47.8857421,41.8295105 L52.2483667,41.8295105 C52.9378536,45.1977275 55.5390456,47.8816195 58.869208,48.7062134 L58.869208,52.7681459 L47.8857421,52.7681459 Z" id="Shape" fill="#1685FB"></path>
                    <path d="M67.9539332,49.7714363 L65.3609914,49.7714363 C64.7174704,49.7714363 64.1953462,50.2914293 64.1953462,50.9323238 C64.1953462,51.5738051 64.7174704,52.0932112 65.3609914,52.0932112 L67.9539332,52.0932112 C68.5980435,52.0932112 69.1195783,51.5738051 69.1195783,50.9323238 C69.1195783,50.2914293 68.5980435,49.7714363 67.9539332,49.7714363 Z" id="Path" fill="#1685FB"></path>
                    <path d="M67.9539332,52.7681459 L65.3609914,52.7681459 C64.7174704,52.7681459 64.1953462,53.287552 64.1953462,53.9290333 C64.1953462,54.5699276 64.7174704,55.0893338 65.3609914,55.0893338 L67.9539332,55.0893338 C68.5980435,55.0893338 69.1195783,54.5699276 69.1195783,53.9290333 C69.1195783,53.287552 68.5980435,52.7681459 67.9539332,52.7681459 Z" id="Path" fill="#1685FB"></path>
                    <path d="M20.1259429,30.6549415 L21.991093,30.6549415 C22.6346141,30.6549415 23.1567383,30.1349484 23.1567383,29.4940541 C23.1567383,28.8531596 22.6346141,28.3331666 21.991093,28.3331666 L20.1259429,28.3331666 C19.4824219,28.3331666 18.960887,28.8531596 18.960887,29.4940541 C18.960887,30.1349484 19.4824219,30.6549415 20.1259429,30.6549415 Z" id="Path" fill="#1685FB"></path>
                    <path d="M20.1259429,34.0366571 L29.1240402,34.0366571 C29.7675612,34.0366571 30.2896855,33.517251 30.2896855,32.8757697 C30.2896855,32.2348753 29.7675612,31.7154692 29.1240402,31.7154692 L20.1259429,31.7154692 C19.4824219,31.7154692 18.960887,32.2348753 18.960887,32.8757697 C18.960887,33.517251 19.4824219,34.0366571 20.1259429,34.0366571 Z" id="Path" fill="#1685FB"></path>
                    <path d="M27.2588901,30.6549415 L29.1240402,30.6549415 C29.7675612,30.6549415 30.2896855,30.1349484 30.2896855,29.4940541 C30.2896855,28.8531596 29.7675612,28.3331666 29.1240402,28.3331666 L27.2588901,28.3331666 C26.6153691,28.3331666 26.0938342,28.8531596 26.0938342,29.4940541 C26.0938342,30.1349484 26.6153691,30.6549415 27.2588901,30.6549415 Z" id="Path" fill="#1685FB"></path>
                    <path d="M34.3918373,30.6549415 L36.2569874,30.6549415 C36.9005084,30.6549415 37.4226327,30.1349484 37.4226327,29.4940541 C37.4226327,28.8531596 36.9005084,28.3331666 36.2569874,28.3331666 L34.3918373,28.3331666 C33.7483163,28.3331666 33.2261922,28.8531596 33.2261922,29.4940541 C33.2261922,30.1349484 33.7483163,30.6549415 34.3918373,30.6549415 Z" id="Path" fill="#1685FB"></path>
                    <path d="M20.1259429,37.393723 L29.1240402,37.393723 C29.7675612,37.393723 30.2896855,36.87373 30.2896855,36.2328356 C30.2896855,35.5913543 29.7675612,35.0719482 29.1240402,35.0719482 L20.1259429,35.0719482 C19.4824219,35.0719482 18.960887,35.5913543 18.960887,36.2328356 C18.960887,36.87373 19.4824219,37.393723 20.1259429,37.393723 Z" id="Path" fill="#1685FB"></path>
                    <path d="M20.1259429,40.750202 L34.3918373,40.750202 C35.0353583,40.750202 35.5574824,40.230209 35.5574824,39.5893146 C35.5574824,38.9484202 35.0353583,38.4284271 34.3918373,38.4284271 L20.1259429,38.4284271 C19.4824219,38.4284271 18.960887,38.9484202 18.960887,39.5893146 C18.960887,40.230209 19.4824219,40.750202 20.1259429,40.750202 Z" id="Path" fill="#1685FB"></path>
                    <path d="M20.1259429,44.106681 L36.2569874,44.106681 C36.9005084,44.106681 37.4226327,43.5872749 37.4226327,42.9457936 C37.4226327,42.3048991 36.9005084,41.7849061 36.2569874,41.7849061 L20.1259429,41.7849061 C19.4824219,41.7849061 18.960887,42.3048991 18.960887,42.9457936 C18.960887,43.5872749 19.4824219,44.106681 20.1259429,44.106681 Z" id="Path" fill="#1685FB"></path>
                    <path d="M23.3382442,47.1931862 L20.1265322,47.1931862 C19.4824219,47.1931862 18.960887,47.7125924 18.960887,48.3540736 L18.960887,51.5526767 C18.960887,52.1941579 19.4824219,52.7135641 20.1265322,52.7135641 L23.3382442,52.7135641 C23.9817653,52.7135641 24.5038894,52.1935711 24.5038894,51.5526767 L24.5038894,48.3540736 C24.5038894,47.7125924 23.9817653,47.1931862 23.3382442,47.1931862 Z M22.172599,50.3917891 L21.291588,50.3917891 L21.291588,49.5149612 L22.172599,49.5149612 L22.172599,50.3917891 Z" id="Shape" fill="#1685FB"></path>
                    <path d="M31.0445851,47.1931862 L27.8328732,47.1931862 C27.189352,47.1931862 26.6672279,47.7125924 26.6672279,48.3540736 L26.6672279,51.5526767 C26.6672279,52.1941579 27.189352,52.7135641 27.8328732,52.7135641 L31.0445851,52.7135641 C31.6886954,52.7135641 32.2102303,52.1935711 32.2102303,51.5526767 L32.2102303,48.3540736 C32.2102303,47.7125924 31.6886954,47.1931862 31.0445851,47.1931862 Z M29.87894,50.3917891 L28.9985183,50.3917891 L28.9985183,49.5149612 L29.87894,49.5149612 L29.87894,50.3917891 Z" id="Shape" fill="#1685FB"></path>
                    <path d="M38.7515154,47.1931862 L35.5392141,47.1931862 C34.8956931,47.1931862 34.3741581,47.7125924 34.3741581,48.3540736 L34.3741581,51.5526767 C34.3741581,52.1941579 34.8956931,52.7135641 35.5392141,52.7135641 L38.7515154,52.7135641 C39.3950363,52.7135641 39.9171606,52.1935711 39.9171606,51.5526767 L39.9171606,48.3540736 C39.9171606,47.7125924 39.3950363,47.1931862 38.7515154,47.1931862 Z M37.5858702,50.3917891 L36.7054486,50.3917891 L36.7054486,49.5149612 L37.5858702,49.5149612 L37.5858702,50.3917891 Z" id="Shape" fill="#1685FB"></path>
                    <path d="M23.3382442,55.3446352 L20.1265322,55.3446352 C19.4824219,55.3446352 18.960887,55.8646282 18.960887,56.5055227 L18.960887,59.7047125 C18.960887,60.3456069 19.4824219,60.8656 20.1265322,60.8656 L23.3382442,60.8656 C23.9817653,60.8656 24.5038894,60.3456069 24.5038894,59.7047125 L24.5038894,56.5055227 C24.5038894,55.8646282 23.9817653,55.3446352 23.3382442,55.3446352 Z M22.172599,58.5438251 L21.291588,58.5438251 L21.291588,57.6664101 L22.172599,57.6664101 L22.172599,58.5438251 Z" id="Shape" fill="#1685FB"></path>
                    <path d="M31.0445851,55.3446352 L27.8328732,55.3446352 C27.189352,55.3446352 26.6672279,55.8646282 26.6672279,56.5055227 L26.6672279,59.7047125 C26.6672279,60.3456069 27.189352,60.8656 27.8328732,60.8656 L31.0445851,60.8656 C31.6886954,60.8656 32.2102303,60.3456069 32.2102303,59.7047125 L32.2102303,56.5055227 C32.2102303,55.8646282 31.6886954,55.3446352 31.0445851,55.3446352 Z M29.87894,58.5438251 L28.9985183,58.5438251 L28.9985183,57.6664101 L29.87894,57.6664101 L29.87894,58.5438251 Z" id="Shape" fill="#1685FB"></path>
                    <path d="M38.7515154,55.3446352 L35.5392141,55.3446352 C34.8956931,55.3446352 34.3741581,55.8646282 34.3741581,56.5055227 L34.3741581,59.7047125 C34.3741581,60.3456069 34.8956931,60.8656 35.5392141,60.8656 L38.7515154,60.8656 C39.3950363,60.8656 39.9171606,60.3456069 39.9171606,59.7047125 L39.9171606,56.5055227 C39.9171606,55.8646282 39.3950363,55.3446352 38.7515154,55.3446352 Z M37.5858702,58.5438251 L36.7054486,58.5438251 L36.7054486,57.6664101 L37.5858702,57.6664101 L37.5858702,58.5438251 Z" id="Shape" fill="#1685FB"></path>
                </g>
                <path d="M49.5825464,33 L42.6891836,36.4606605 C42.015247,36.7476061 41.4831307,36.1530435 41.7440323,35.5486909 L44.9047921,29 L49.5825464,33 Z" id="Path" fill="#4E7693"></path>
                <path d="M50.0801809,32.6120722 L69.7124226,9.8675938 C70.1265635,9.38865537 70.0891238,8.65076668 69.6277512,8.21918265 L66.5035499,5.29879738 C66.0421772,4.86781273 65.3337023,4.90797406 64.9195613,5.38751187 L45.2873197,28.1319903 C44.8731787,28.6121275 44.9111943,29.3488174 45.3725669,29.7804014 L48.4961923,32.7007867 C48.9581411,33.1317714 49.6660399,33.0928089 50.0801809,32.6120722 Z" id="Path" fill="#FCC44D"></path>
                <path d="M49.9791117,32.7816165 L69.712509,9.96423295 C70.1265255,9.50753754 70.0890971,8.80391813 69.6278631,8.39237787 L68.0662317,7 L47,31.2419023 L48.4142279,32.4856922 C48.8760378,32.896661 49.5650951,33.2400267 49.9791117,32.7816165 Z" id="Path" fill="#F3AF3E"></path>
                <path d="M67.8396203,12 L69.7299224,9.80565209 C70.3251635,9.12924278 69.8096359,8.38916182 69.3977938,7.9936657 L66.6129808,5.31375337 C66.2016522,4.91770721 65.1744682,4.87370209 64.8057616,5.31375337 L63,7.44525629 L67.8396203,12 Z" id="Path" fill="#FD82AC"></path>
            </g>
        </g>
    </g>
</svg>
