<?xml version="1.0" encoding="UTF-8"?>
<svg width="32px" height="30px" viewBox="0 0 32 30" version="1.1" xmlns="http://www.w3.org/2000/svg" xmlns:xlink="http://www.w3.org/1999/xlink">
    <!-- Generator: Sketch 55.2 (78181) - https://sketchapp.com -->
    <title>icon-ln</title>
    <desc>Created with Sketch.</desc>
    <g id="Page-1" stroke="none" stroke-width="1" fill="none" fill-rule="evenodd">
        <g id="icon-ln" fill="#FFFFFF" fill-rule="nonzero">
            <path d="M31.319199,18.3890534 L31.319199,29.9679612 L24.6064806,29.9679612 L24.6064806,19.1645388 C24.6064806,16.4506311 23.6355583,14.5984951 21.2057767,14.5984951 C19.3509466,14.5984951 18.2471359,15.846699 17.7615291,17.0541262 C17.5844417,17.4857767 17.5388592,18.0865777 17.5388592,18.690801 L17.5388592,29.9679612 L10.8238835,29.9679612 C10.8238835,29.9679612 10.9143204,11.6705097 10.8238835,9.77475728 L17.5382039,9.77475728 L17.5382039,12.6370631 C17.5245874,12.6584709 17.5068932,12.6815534 17.4940777,12.7023058 L17.5382039,12.7023058 L17.5382039,12.6370631 C18.430267,11.2631068 20.0233981,9.30036408 23.5893204,9.30036408 C28.0072573,9.30036408 31.319199,12.1864806 31.319199,18.3890534 Z M3.79973301,0.040631068 C1.50254854,0.040631068 0,1.54740291 0,3.52885922 C0,5.46713592 1.45907767,7.01963592 3.7106068,7.01963592 L3.75546117,7.01963592 C6.09713592,7.01963592 7.5534466,5.46742718 7.5534466,3.52885922 C7.50932039,1.54740291 6.09713592,0.040631068 3.79973301,0.040631068 Z M0.39881068,29.9679612 L7.11123786,29.9679612 L7.11123786,9.77475728 L0.39881068,9.77475728 L0.39881068,29.9679612 Z" id="LinkedIn"></path>
        </g>
    </g>
</svg>