<?xml version="1.0" encoding="UTF-8"?>
<svg viewBox="0 0 64 64" version="1.1" xmlns="http://www.w3.org/2000/svg" xmlns:xlink="http://www.w3.org/1999/xlink">
    <!-- Generator: Sketch 55.2 (78181) - https://sketchapp.com -->
    <title>planning</title>
    <desc>Created with Sketch.</desc>
    <g id="Page-1" stroke="none" stroke-width="1" fill="none" fill-rule="evenodd">
        <g id="Artboard" transform="translate(-121.000000, -105.000000)" fill-rule="nonzero">
            <g id="planning" transform="translate(121.000000, 105.000000)">
                <g id="Group" transform="translate(7.000000, 2.000000)">
                    <rect id="Rectangle" fill="#666666" x="36.8000522" y="22.7935" width="1.99864179" height="1.96925"></rect>
                    <rect id="Rectangle" fill="#666666" x="42.8958209" y="22.7935" width="1.99864179" height="1.96925"></rect>
                    <rect id="Rectangle" fill="#666666" x="48.8917463" y="22.7935" width="1.99864179" height="1.96925"></rect>
                    <rect id="Rectangle" fill="#666666" x="0.125343284" y="35.00275" width="1.99864179" height="1.96925"></rect>
                    <rect id="Rectangle" fill="#666666" x="6.12114179" y="35.00275" width="1.99864179" height="1.96925"></rect>
                    <rect id="Rectangle" fill="#666666" x="12.2169104" y="35.00275" width="1.99864179" height="1.96925"></rect>
                    <polygon id="Path" fill="#909090" points="12.1170672 6.54725 10.7179925 5.168875 12.5168209 3.298125 10.7179925 1.42725 12.1170672 0.048875 15.4148134 3.298125"></polygon>
                    <rect id="Rectangle" fill="#909090" x="7.72002985" y="2.3135" width="6.19573881" height="1.96925"></rect>
                </g>
                <rect id="Rectangle" fill="#1EDD88" x="25" y="54" width="14" height="9" rx="1"></rect>
                <rect id="Rectangle" fill="#E0E4E8" x="25" y="40" width="14" height="9" rx="1"></rect>
                <rect id="Rectangle" fill="#1EDD88" x="25" y="28" width="14" height="9" rx="1"></rect>
                <rect id="Rectangle" fill="#E0E4E8" x="25" y="15" width="14" height="9" rx="1"></rect>
                <rect id="Rectangle" fill="#1EDD88" x="25" y="1" width="14" height="9"></rect>
                <g id="Group" transform="translate(1.000000, 0.000000)">
                    <rect id="Rectangle" fill="#909090" x="37.6085963" y="57.7435984" width="6.14177282" height="2.00153279"></rect>
                    <polygon id="Path" fill="#909090" points="41.9673347 61.9468934 40.5804462 60.5457951 42.3634807 58.7443648 40.5804462 56.8429467 41.9673347 55.4419754 45.1372576 58.7443648"></polygon>
                    <polygon id="Path" fill="#909090" points="18.5889331 61.5465615 17.103071 60.1454631 18.9852049 58.2440451 17.103071 56.342627 18.5889331 54.9415287 21.758856 58.2440451"></polygon>
                    <path d="M20.2729939,59.2448115 L7.39510345,59.2448115 C3.33366329,59.2448115 0.0646409736,55.9422951 0.0646409736,51.8392418 C0.0646409736,47.7361885 3.43276268,44.5336598 7.49420284,44.5336598 L24.5326329,44.5336598 L24.5326329,46.5351926 L7.49420284,46.5351926 C4.52235294,46.5351926 2.14497363,48.9370574 2.14497363,51.9392295 C2.14497363,54.9414016 4.5224787,57.3432664 7.49420284,57.3432664 L20.3720933,57.3432664 L20.3720933,59.2448115 L20.2729939,59.2448115 L20.2729939,59.2448115 Z" id="Path" fill="#909090"></path>
                    <polygon id="Path" fill="#909090" points="18.5889331 34.526123 17.103071 33.1250246 18.9852049 31.3237213 17.103071 29.4223033 18.5889331 28.0212049 21.758856 31.3237213"></polygon>
                    <path d="M20.2729939,32.3244877 L7.39510345,32.3244877 C3.33366329,32.3244877 0.0646409736,29.0219713 0.0646409736,24.918918 C0.0646409736,20.8158648 3.43276268,17.5133484 7.49420284,17.5133484 L24.5326329,17.5133484 L24.5326329,19.5147541 L7.49420284,19.5147541 C4.52235294,19.5147541 2.14497363,21.9166189 2.14497363,24.918791 C2.14497363,27.9209631 4.5224787,30.3228279 7.49420284,30.3228279 L20.3720933,30.3228279 L20.3720933,32.3244877 L20.2729939,32.3244877 L20.2729939,32.3244877 Z" id="Path" fill="#909090"></path>
                    <polygon id="Path" fill="#909090" points="43.5522961 48.5367254 40.3823732 45.234209 43.5522961 42.0318074 45.0381582 43.4327787 43.1560243 45.234209 45.0381582 47.135627"></polygon>
                    <path d="M54.6470264,46.2349754 L41.7691359,46.2349754 L41.7691359,44.2334426 L54.6470264,44.2334426 C57.6188763,44.2334426 59.9962556,41.8315779 59.9962556,38.8294057 L59.9962556,38.3290861 C59.9962556,35.3267869 57.6187505,32.9250492 54.6470264,32.9250492 L37.6085963,32.9250492 L37.6085963,30.9235164 L54.6470264,30.9235164 C58.7084665,30.9235164 61.9774888,34.2260328 61.9774888,38.3290861 L61.9774888,38.8294057 C61.9774888,42.932459 58.7085923,46.2349754 54.6470264,46.2349754 Z" id="Path" fill="#909090"></path>
                    <polygon id="Path" fill="#909090" points="43.5522961 21.6164016 40.3823732 18.3138852 43.5522961 15.0113689 45.0381582 16.4124672 43.1560243 18.3138852 45.0381582 20.2153033"></polygon>
                    <path d="M54.6470264,19.3146516 L41.7691359,19.3146516 L41.7691359,17.3131189 L54.6470264,17.3131189 C57.6188763,17.3131189 59.9962556,14.9112541 59.9962556,11.909082 L59.9962556,11.4087623 C59.9962556,8.40646311 57.6187505,6.00472541 54.6470264,6.00472541 L37.6085963,6.00472541 L37.6085963,4.00306557 L54.6470264,4.00306557 C58.7084665,4.00306557 61.9774888,7.30558197 61.9774888,11.4086352 L61.9774888,11.9089549 C61.9774888,16.0121352 58.7085923,19.3146516 54.6470264,19.3146516 Z" id="Path" fill="#909090"></path>
                    <path d="M37.6085963,10.1076516 L24.5326329,10.1076516 C23.938288,10.1076516 23.5420162,9.70731967 23.5420162,9.10688525 L23.5420162,1.00076639 C23.5420162,0.400331967 23.938288,0 24.5326329,0 L37.6085963,0 C38.2029412,0 38.599213,0.400331967 38.599213,1.00076639 L38.599213,9.10688525 C38.599213,9.60720492 38.2029412,10.1076516 37.6085963,10.1076516 Z M25.5232495,8.10611885 L36.6181055,8.10611885 L36.6181055,2.00153279 L25.5232495,2.00153279 L25.5232495,8.10611885 L25.5232495,8.10611885 Z" id="Shape" fill="#1EC279"></path>
                </g>
                <path d="M39.0131464,64 L25.9868536,64 C25.3947665,64 25,63.6039318 25,63.0098923 L25,54.9901077 C25,54.3960682 25.3947665,54 25.9868536,54 L39.0131464,54 C39.6052335,54 40,54.3960682 40,54.9901077 L40,63.0098923 C40,63.6039318 39.6052335,64 39.0131464,64 Z M26.9737073,62.0197846 L38.026418,62.0197846 L38.026418,55.9802154 L26.9737073,55.9802154 L26.9737073,62.0197846 L26.9737073,62.0197846 Z" id="Shape" fill="#1EC279"></path>
                <path d="M39.0131464,50 L25.9868536,50 C25.3947665,50 25,49.6039318 25,49.0098923 L25,40.9901077 C25,40.3960682 25.3947665,40 25.9868536,40 L39.0131464,40 C39.6052335,40 40,40.3960682 40,40.9901077 L40,49.0098923 C40,49.6039318 39.6052335,50 39.0131464,50 Z M26.9737073,48.0197846 L38.026418,48.0197846 L38.026418,41.9802154 L26.9737073,41.9802154 L26.9737073,48.0197846 L26.9737073,48.0197846 Z" id="Shape" fill="#CDCDCD"></path>
                <path d="M39.0131464,37 L25.9868536,37 C25.3947665,37 25,36.6039318 25,36.0098923 L25,27.9901077 C25,27.3960682 25.3947665,27 25.9868536,27 L39.0131464,27 C39.6052335,27 40,27.3960682 40,27.9901077 L40,36.0098923 C40,36.6039318 39.6052335,37 39.0131464,37 Z M26.9737073,35.0197846 L38.026418,35.0197846 L38.026418,28.9802154 L26.9737073,28.9802154 L26.9737073,35.0197846 L26.9737073,35.0197846 Z" id="Shape" fill="#1EC279"></path>
                <path d="M39.0131464,24 L25.9868536,24 C25.3947665,24 25,23.6039318 25,23.0098923 L25,14.9901077 C25,14.3960682 25.3947665,14 25.9868536,14 L39.0131464,14 C39.6052335,14 40,14.3960682 40,14.9901077 L40,23.0098923 C40,23.505009 39.6052335,24 39.0131464,24 Z M26.9737073,22.0199103 L38.026418,22.0199103 L38.026418,15.9803411 L26.9737073,15.9803411 L26.9737073,22.0199103 L26.9737073,22.0199103 Z" id="Shape" fill="#CDCDCD"></path>
                <rect id="Rectangle" fill="#FD1015" x="49" y="54" width="14" height="9" rx="1"></rect>
                <path d="M63.0131464,64 L49.9868536,64 C49.3947665,64 49,63.6039318 49,63.0098923 L49,54.9901077 C49,54.3960682 49.3947665,54 49.9868536,54 L63.0131464,54 C63.6052335,54 64,54.3960682 64,54.9901077 L64,63.0098923 C64,63.6039318 63.6052335,64 63.0131464,64 Z M50.9737073,62.0197846 L62.026418,62.0197846 L62.026418,55.9802154 L50.9737073,55.9802154 L50.9737073,62.0197846 Z" id="Shape" fill="#D80005"></path>
                <rect id="Rectangle" fill="#FD1015" x="1" y="1" width="14" height="9" rx="2"></rect>
                <path d="M14.0131464,10 L0.986853644,10 C0.394766514,10 0,9.60393177 0,9.00989228 L0,0.990107722 C0,0.396068228 0.394766514,0 0.986853644,0 L14.0131464,0 C14.6052335,0 15,0.396068228 15,0.990107722 L15,9.00989228 C15,9.50488329 14.6052335,10 14.0131464,10 Z M1.97370729,8.01978456 L13.026418,8.01978456 L13.026418,1.98021544 L1.97370729,1.98021544 L1.97370729,8.01978456 Z" id="Shape" fill="#D80005"></path>
            </g>
        </g>
    </g>
</svg>
