<?xml version="1.0" encoding="UTF-8"?>
<svg viewBox="0 0 61 60" version="1.1" xmlns="http://www.w3.org/2000/svg" xmlns:xlink="http://www.w3.org/1999/xlink">
    <!-- Generator: Sketch 55.2 (78181) - https://sketchapp.com -->
    <title>build</title>
    <desc>Created with Sketch.</desc>
    <g id="Page-1" stroke="none" stroke-width="1" fill="none" fill-rule="evenodd">
        <g id="build" transform="translate(30.012341, 30.206999) rotate(44.500000) translate(-30.012341, -30.206999) translate(-2.487659, -11.793001)" fill-rule="nonzero">
            <polygon id="Path" fill="#F3AF3E" points="-0.00434422928 51.0040012 31.9952748 19.0043823 63.9956558 51.0040012 31.9952748 83.0043823"></polygon>
            <polygon id="Path" fill="#C0F5F9" points="0.995655771 43.0625059 33.0533909 11.0043823 63.9956558 41.9462589 31.9379209 74.0043823"></polygon>
            <path d="M53.48584,43.558851 L58.9956558,38.0484139 L56.7917295,35.8442391 L51.2819137,41.353154 L46.874061,36.9448044 L52.3838768,31.4351284 L50.1799505,29.2309536 L44.6701347,34.7406296 L40.2615211,30.333041 L45.77362,24.8302151 L43.5719768,22.6260403 L38.062161,28.1364773 L33.6482202,23.7205165 L39.1595579,18.2085571 L36.9556316,16.0043823 L31.4442938,21.5163417 L27.0364412,17.1064697 L24.8325149,19.3106445 L29.2403675,23.7205165 L24.8309927,28.1303885 L20.423901,23.7205165 L18.2199747,25.9216469 L22.6278274,30.3315187 L18.2199747,34.7391072 L13.8106001,30.333041 L11.6066738,32.5387381 L16.0160484,36.9463265 L11.6066738,41.353154 L7.19882112,36.9463265 L4.99565577,39.1505013 L9.40274744,43.558851 L5.00174396,47.9626341 L7.20567029,50.1660478 L11.6066738,45.7630258 L16.0160484,50.1728978 L11.6142839,54.5759196 L13.8227765,56.7846612 L18.224541,52.3831615 L22.6278274,56.7846612 L18.2260629,61.1869219 L20.4299892,63.3910968 L24.8309927,58.988836 L29.2403675,63.3987078 L24.839364,67.8002075 L27.0432904,70.0043823 L31.4442938,65.6028826 L35.8361648,69.995249 L38.0400911,67.7910742 L33.6482202,63.4002299 L38.0575948,58.9903581 L42.4494659,63.3827245 L44.6533923,61.1793107 L40.2615211,56.7846612 L44.6686127,52.3747892 L49.0627669,56.7694388 L51.2666932,54.565264 L46.8725391,50.1728978 L51.2819137,45.7645481 L55.6737849,50.1569143 L57.8777112,47.9527395 L53.48584,43.558851 Z M42.4669693,36.9463265 L38.0575948,41.353154 L33.6482202,36.9463265 L38.0575948,32.5387381 L42.4669693,36.9463265 Z M35.8536684,43.5603733 L31.4442938,47.9687229 L27.0364412,43.5603733 L31.4442938,39.1520236 L35.8536684,43.5603733 Z M31.4442938,25.9216469 L35.8536684,30.3299965 L31.4442938,34.7391072 L27.034919,30.3315187 L31.4442938,25.9216469 Z M24.8309927,32.5349324 L29.2403675,36.9432821 L24.8325149,41.353154 L20.423901,36.9432821 L24.8309927,32.5349324 Z M13.8106001,43.5558065 L18.2199747,39.1474569 L22.6293495,43.5573289 L18.2199747,47.9656785 L13.8106001,43.5558065 Z M20.423901,50.1698533 L24.8325149,45.7615037 L29.2403675,50.1698533 L24.8309927,54.578964 L20.423901,50.1698533 Z M31.4442938,61.1930108 L27.034919,56.7846612 L31.4442938,52.3747892 L35.8536684,56.7846612 L31.4442938,61.1930108 Z M38.0575948,54.578964 L33.6482202,50.1728978 L38.0575948,45.7645481 L42.4646864,50.1728978 L38.0575948,54.578964 Z M44.6686127,47.9656785 L40.2615211,43.5573289 L44.6701347,39.1474569 L49.0779873,43.5558065 L44.6686127,47.9656785 Z" id="Shape" fill="#8ACED8"></path>
            <polygon id="Path" fill-opacity="0.75" fill="#FBB540" points="0.995655771 32.056572 33.0486088 0.00438230622 64.3420075 31.4318444 32.4421392 63.0043823"></polygon>
            <polygon id="Path" fill="#EA9D2D" points="6.50273877 37.5472005 33.0533909 11.0043823 58.9956558 36.7714205 32.4421392 63.0043823"></polygon>
            <path d="M28.0167536,17.0972651 L25.8042478,19.2830308 L30.2292595,23.6560718 L25.8027197,28.0291127 L21.3784719,23.6560718 L19.165966,25.8388184 L23.5909778,30.2118592 L19.165966,34.5826358 L14.7394264,30.2133688 L12.5269205,32.4006441 L16.9534601,36.7714205 L12.5269205,41.1414424 L8.10190871,36.7714205 L6.99565577,37.8643033 L32.4417654,63.0043823 L58.9956558,36.7714205 L57.8878748,35.6785377 L52.3566101,41.1414424 L47.9315983,36.7699111 L53.462863,31.3062516 L51.2503572,29.1204859 L45.7190925,34.5841454 L41.2933168,30.2133688 L46.8268735,24.7565022 L44.6166596,22.5707366 L39.0853949,28.0351507 L34.6542713,23.6560718 L40.1870638,18.190148 L37.974558,16.0043823 L32.4417654,21.4703061 L28.0167536,17.0972651 Z M25.8027197,32.4006441 L30.2292595,36.7714205 L25.8042478,41.1414424 L21.3784719,36.7684015 L25.8027197,32.4006441 Z M32.4417654,38.9586958 L36.868305,43.3302271 L32.4417654,47.7017585 L28.0167536,43.3302271 L32.4417654,38.9586958 Z M14.7394264,43.3287175 L19.165966,38.9571862 L23.5925058,43.3302271 L19.165966,47.7017585 L14.7394264,43.3287175 Z M21.3784719,49.8875241 L25.8042478,45.5159928 L30.2292595,49.8875241 L25.8027197,54.2598102 L21.3784719,49.8875241 Z M32.4417654,60.8186166 L28.0152256,56.4440665 L32.4417654,52.0710255 L36.868305,56.4440665 L32.4417654,60.8186166 Z M39.0808109,54.2598102 L34.6542713,49.8875241 L39.0808109,45.5159928 L43.5050587,49.8875241 L39.0808109,54.2598102 Z M50.1441042,43.3287175 L45.7175646,47.7017585 L41.2933168,43.3302271 L45.7190925,38.9571862 L50.1441042,43.3287175 Z M43.5073505,36.7714205 L39.0808109,41.1414424 L34.6542713,36.7714205 L39.0808109,32.4006441 L43.5073505,36.7714205 Z M36.868305,30.2133688 L32.4417654,34.5856548 L28.0152256,30.2148784 L32.4417654,25.8388184 L36.868305,30.2133688 Z" id="Shape" fill="#D18D28"></path>
        </g>
    </g>
</svg>
