<?xml version="1.0" encoding="UTF-8"?>
<svg width="30px" height="24px" viewBox="0 0 30 24" version="1.1" xmlns="http://www.w3.org/2000/svg" xmlns:xlink="http://www.w3.org/1999/xlink">
    <!-- Generator: Sketch 55.2 (78181) - https://sketchapp.com -->
    <title>icon-twitter</title>
    <desc>Created with Sketch.</desc>
    <g id="Page-1" stroke="none" stroke-width="1" fill="none" fill-rule="evenodd">
        <g id="icon-twitter" fill="#FFFFFF" fill-rule="nonzero">
            <path d="M29.5384615,2.84123077 C28.44,3.32307692 27.2695385,3.64246154 26.0492308,3.79753846 C27.3046154,3.048 28.2627692,1.87015385 28.7132308,0.450461538 C27.5427692,1.14830769 26.2504615,1.64123077 24.8732308,1.91630769 C23.7618462,0.732923077 22.1778462,0 20.4498462,0 C17.0972308,0 14.3981538,2.72123077 14.3981538,6.05723077 C14.3981538,6.53723077 14.4387692,6.99876923 14.5384615,7.43815385 C9.504,7.19261538 5.04923077,4.77969231 2.05661538,1.104 C1.53415385,2.01046154 1.22769231,3.048 1.22769231,4.16492308 C1.22769231,6.26215385 2.30769231,8.12123077 3.91753846,9.19753846 C2.94461538,9.17907692 1.99015385,8.89661538 1.18153846,8.45169231 C1.18153846,8.47015385 1.18153846,8.49415385 1.18153846,8.51815385 C1.18153846,11.4609231 3.28061538,13.9052308 6.03323077,14.4683077 C5.54030769,14.6030769 5.00307692,14.6676923 4.44553846,14.6676923 C4.05784615,14.6676923 3.66646154,14.6455385 3.29907692,14.5643077 C4.08369231,16.9624615 6.31015385,18.7255385 8.95753846,18.7827692 C6.89723077,20.3944615 4.28123077,21.3655385 1.44923077,21.3655385 C0.952615385,21.3655385 0.476307692,21.3433846 -5.68434189e-14,21.2824615 C2.68246154,23.0123077 5.86153846,24 9.28984615,24 C20.4332308,24 26.5255385,14.7692308 26.5255385,6.768 C26.5255385,6.50030769 26.5163077,6.24184615 26.5033846,5.98523077 C27.7052308,5.13230769 28.7150769,4.06707692 29.5384615,2.84123077 Z" id="Path"></path>
        </g>
    </g>
</svg>